<svg xmlns="http://www.w3.org/2000/svg" style="display:none"><!-- Icons: Lucide (ISC License) — see icons-LICENSE.txt --><symbol id="i-file-text" viewBox="0 0 24 24"><path d="M6 22a2 2 0 0 1-2-2V4a2 2 0 0 1 2-2h8a2.4 2.4 0 0 1 1.704.706l3.588 3.588A2.4 2.4 0 0 1 20 8v12a2 2 0 0 1-2 2z" /> <path d="M14 2v5a1 1 0 0 0 1 1h5" /> <path d="M10 9H8" /> <path d="M16 13H8" /> <path d="M16 17H8" /></symbol><symbol id="i-file-check" viewBox="0 0 24 24"><path d="M6 22a2 2 0 0 1-2-2V4a2 2 0 0 1 2-2h8a2.4 2.4 0 0 1 1.704.706l3.588 3.588A2.4 2.4 0 0 1 20 8v12a2 2 0 0 1-2 2z" /> <path d="M14 2v5a1 1 0 0 0 1 1h5" /> <path d="m9 15 2 2 4-4" /></symbol><symbol id="i-file-up" viewBox="0 0 24 24"><path d="M6 22a2 2 0 0 1-2-2V4a2 2 0 0 1 2-2h8a2.4 2.4 0 0 1 1.704.706l3.588 3.588A2.4 2.4 0 0 1 20 8v12a2 2 0 0 1-2 2z" /> <path d="M14 2v5a1 1 0 0 0 1 1h5" /> <path d="M12 12v6" /> <path d="m15 15-3-3-3 3" /></symbol><symbol id="i-file-search" viewBox="0 0 24 24"><path d="M6 22a2 2 0 0 1-2-2V4a2 2 0 0 1 2-2h8a2.4 2.4 0 0 1 1.704.706l3.588 3.588A2.4 2.4 0 0 1 20 8v12a2 2 0 0 1-2 2z" /> <path d="M14 2v5a1 1 0 0 0 1 1h5" /> <circle cx="11.5" cy="14.5" r="2.5" /> <path d="M13.3 16.3 15 18" /></symbol><symbol id="i-upload" viewBox="0 0 24 24"><path d="M12 3v12" /> <path d="m17 8-5-5-5 5" /> <path d="M21 15v4a2 2 0 0 1-2 2H5a2 2 0 0 1-2-2v-4" /></symbol><symbol id="i-download" viewBox="0 0 24 24"><path d="M12 15V3" /> <path d="M21 15v4a2 2 0 0 1-2 2H5a2 2 0 0 1-2-2v-4" /> <path d="m7 10 5 5 5-5" /></symbol><symbol id="i-wrench" viewBox="0 0 24 24"><path d="M14.7 6.3a1 1 0 0 0 0 1.4l1.6 1.6a1 1 0 0 0 1.4 0l3.106-3.105c.32-.322.863-.22.983.218a6 6 0 0 1-8.259 7.057l-7.91 7.91a1 1 0 0 1-2.999-3l7.91-7.91a6 6 0 0 1 7.057-8.259c.438.12.54.662.219.984z" /></symbol><symbol id="i-check" viewBox="0 0 24 24"><path d="M20 6 9 17l-5-5" /></symbol><symbol id="i-circle-check" viewBox="0 0 24 24"><circle cx="12" cy="12" r="10" /> <path d="m16 9-5.5 5.5L8 12" /></symbol><symbol id="i-circle-alert" viewBox="0 0 24 24"><circle cx="12" cy="12" r="10" /> <line x1="12" x2="12" y1="8" y2="12" /> <line x1="12" x2="12.01" y1="16" y2="16" /></symbol><symbol id="i-triangle-alert" viewBox="0 0 24 24"><path d="m21.73 18-8-14a2 2 0 0 0-3.48 0l-8 14A2 2 0 0 0 4 21h16a2 2 0 0 0 1.73-3" /> <path d="M12 9v4" /> <path d="M12 17h.01" /></symbol><symbol id="i-info" viewBox="0 0 24 24"><circle cx="12" cy="12" r="10" /> <path d="M12 16v-4" /> <path d="M12 8h.01" /></symbol><symbol id="i-x" viewBox="0 0 24 24"><path d="M18 6 6 18" /> <path d="m6 6 12 12" /></symbol><symbol id="i-menu" viewBox="0 0 24 24"><path d="M4 5h16" /> <path d="M4 12h16" /> <path d="M4 19h16" /></symbol><symbol id="i-chevron-right" viewBox="0 0 24 24"><path d="m9 18 6-6-6-6" /></symbol><symbol id="i-chevron-down" viewBox="0 0 24 24"><path d="m6 9 6 6 6-6" /></symbol><symbol id="i-arrow-right" viewBox="0 0 24 24"><path d="M5 12h14" /> <path d="m12 5 7 7-7 7" /></symbol><symbol id="i-arrow-down" viewBox="0 0 24 24"><path d="M12 5v14" /> <path d="m19 12-7 7-7-7" /></symbol><symbol id="i-external-link" viewBox="0 0 24 24"><path d="M15 3h6v6" /> <path d="M10 14 21 3" /> <path d="M18 13v6a2 2 0 0 1-2 2H5a2 2 0 0 1-2-2V8a2 2 0 0 1 2-2h6" /></symbol><symbol id="i-languages" viewBox="0 0 24 24"><path d="m5 8 6 6" /> <path d="m4 14 6-6 2-3" /> <path d="M2 5h12" /> <path d="M7 2h1" /> <path d="m22 22-5-10-5 10" /> <path d="M14 18h6" /></symbol><symbol id="i-book-open" viewBox="0 0 24 24"><path d="M12 5v16" /> <path d="M20.001 19A2 2 0 0022 17V5a2 2 0 00-1.999-2L16 3.002A5 5 0 0012 5a5 5 0 00-4-2H4a2 2 0 00-2 2v12a2 2 0 001.999 2H8a5 5 0 014 2 5 5 0 014-2z" /></symbol><symbol id="i-book-text" viewBox="0 0 24 24"><path d="M4 19.5v-15A2.5 2.5 0 0 1 6.5 2H19a1 1 0 0 1 1 1v18a1 1 0 0 1-1 1H6.5a1 1 0 0 1 0-5H20" /> <path d="M8 11h8" /> <path d="M8 7h6" /></symbol><symbol id="i-graduation-cap" viewBox="0 0 24 24"><path d="M21.42 10.922a1 1 0 0 0-.019-1.838L12.83 5.18a2 2 0 0 0-1.66 0L2.6 9.08a1 1 0 0 0 0 1.832l8.57 3.908a2 2 0 0 0 1.66 0z" /> <path d="M22 10v6" /> <path d="M6 12.5V16a6 3 0 0 0 12 0v-3.5" /></symbol><symbol id="i-network" viewBox="0 0 24 24"><rect x="16" y="16" width="6" height="6" rx="1" /> <rect x="2" y="16" width="6" height="6" rx="1" /> <rect x="9" y="2" width="6" height="6" rx="1" /> <path d="M5 16v-3a1 1 0 0 1 1-1h12a1 1 0 0 1 1 1v3" /> <path d="M12 12V8" /></symbol><symbol id="i-layers" viewBox="0 0 24 24"><path d="M12.83 2.18a2 2 0 0 0-1.66 0L2.6 6.08a1 1 0 0 0 0 1.83l8.58 3.91a2 2 0 0 0 1.66 0l8.58-3.9a1 1 0 0 0 0-1.83z" /> <path d="M2 12a1 1 0 0 0 .58.91l8.6 3.91a2 2 0 0 0 1.65 0l8.58-3.9A1 1 0 0 0 22 12" /> <path d="M2 17a1 1 0 0 0 .58.91l8.6 3.91a2 2 0 0 0 1.65 0l8.58-3.9A1 1 0 0 0 22 17" /></symbol><symbol id="i-clipboard-list" viewBox="0 0 24 24"><rect width="8" height="4" x="8" y="2" rx="1" ry="1" /> <path d="M16 4h2a2 2 0 0 1 2 2v14a2 2 0 0 1-2 2H6a2 2 0 0 1-2-2V6a2 2 0 0 1 2-2h2" /> <path d="M12 11h4" /> <path d="M12 16h4" /> <path d="M8 11h.01" /> <path d="M8 16h.01" /></symbol><symbol id="i-headphones" viewBox="0 0 24 24"><path d="M3 14h3a2 2 0 0 1 2 2v3a2 2 0 0 1-2 2H5a2 2 0 0 1-2-2v-7a9 9 0 0 1 18 0v7a2 2 0 0 1-2 2h-1a2 2 0 0 1-2-2v-3a2 2 0 0 1 2-2h3" /></symbol><symbol id="i-pen-line" viewBox="0 0 24 24"><path d="M13 21h8" /> <path d="M21.174 6.812a1 1 0 0 0-3.986-3.987L3.842 16.174a2 2 0 0 0-.5.83l-1.321 4.352a.5.5 0 0 0 .623.622l4.353-1.32a2 2 0 0 0 .83-.497z" /></symbol><symbol id="i-mic" viewBox="0 0 24 24"><path d="M12 19v3" /> <path d="M19 10v2a7 7 0 0 1-14 0v-2" /> <rect x="9" y="2" width="6" height="13" rx="3" /></symbol><symbol id="i-image" viewBox="0 0 24 24"><rect width="18" height="18" x="3" y="3" rx="2" ry="2" /> <circle cx="9" cy="9" r="2" /> <path d="m21 15-3.086-3.086a2 2 0 0 0-2.828 0L6 21" /></symbol><symbol id="i-list-checks" viewBox="0 0 24 24"><path d="M13 5h8" /> <path d="M13 12h8" /> <path d="M13 19h8" /> <path d="m3 17 2 2 4-4" /> <path d="m3 7 2 2 4-4" /></symbol><symbol id="i-spell-check" viewBox="0 0 24 24"><path d="m20 15-5.5 5.5L12 18" /> <path d="m4 16 6-12 5.115 10.23" /> <path d="M6 12h8" /></symbol><symbol id="i-file-question" viewBox="0 0 24 24"><path d="M6 22a2 2 0 0 1-2-2V4a2 2 0 0 1 2-2h8a2.4 2.4 0 0 1 1.704.706l3.588 3.588A2.4 2.4 0 0 1 20 8v12a2 2 0 0 1-2 2z" /> <path d="M12 17h.01" /> <path d="M9.1 9a3 3 0 0 1 5.82 1c0 2-3 3-3 3" /></symbol><symbol id="i-shield-check" viewBox="0 0 24 24"><path d="M20 13c0 5-3.5 7.5-7.66 8.95a1 1 0 0 1-.67-.01C7.5 20.5 4 18 4 13V6a1 1 0 0 1 1-1c2 0 4.5-1.2 6.24-2.72a1.17 1.17 0 0 1 1.52 0C14.51 3.81 17 5 19 5a1 1 0 0 1 1 1z" /> <path d="m9 12 2 2 4-4" /></symbol><symbol id="i-user-check" viewBox="0 0 24 24"><path d="m16 11 2 2 4-4" /> <path d="M16 21v-2a4 4 0 0 0-4-4H6a4 4 0 0 0-4 4v2" /> <circle cx="9" cy="7" r="4" /></symbol><symbol id="i-hard-drive" viewBox="0 0 24 24"><path d="M10 16h.01" /> <path d="M2.212 11.577a2 2 0 0 0-.212.896V18a2 2 0 0 0 2 2h16a2 2 0 0 0 2-2v-5.527a2 2 0 0 0-.212-.896L18.55 5.11A2 2 0 0 0 16.76 4H7.24a2 2 0 0 0-1.79 1.11z" /> <path d="M21.946 12.013H2.054" /> <path d="M6 16h.01" /></symbol><symbol id="i-ruler" viewBox="0 0 24 24"><path d="M21.3 15.3a2.4 2.4 0 0 1 0 3.4l-2.6 2.6a2.4 2.4 0 0 1-3.4 0L2.7 8.7a2.41 2.41 0 0 1 0-3.4l2.6-2.6a2.41 2.41 0 0 1 3.4 0Z" /> <path d="m14.5 12.5 2-2" /> <path d="m11.5 9.5 2-2" /> <path d="m8.5 6.5 2-2" /> <path d="m17.5 15.5 2-2" /></symbol><symbol id="i-terminal" viewBox="0 0 24 24"><path d="M12 19h8" /> <path d="m4 17 6-6-6-6" /></symbol><symbol id="i-copy" viewBox="0 0 24 24"><rect width="14" height="14" x="8" y="8" rx="2" ry="2" /> <path d="M4 16c-1.1 0-2-.9-2-2V4c0-1.1.9-2 2-2h10c1.1 0 2 .9 2 2" /></symbol><symbol id="i-loader-circle" viewBox="0 0 24 24"><path d="M21 12a9 9 0 1 1-6.219-8.56" /></symbol><symbol id="i-sliders-horizontal" viewBox="0 0 24 24"><path d="M10 5H3" /> <path d="M12 19H3" /> <path d="M14 3v4" /> <path d="M16 17v4" /> <path d="M21 12h-9" /> <path d="M21 19h-5" /> <path d="M21 5h-7" /> <path d="M8 10v4" /> <path d="M8 12H3" /></symbol><symbol id="i-scan-text" viewBox="0 0 24 24"><path d="M3 7V5a2 2 0 0 1 2-2h2" /> <path d="M17 3h2a2 2 0 0 1 2 2v2" /> <path d="M21 17v2a2 2 0 0 1-2 2h-2" /> <path d="M7 21H5a2 2 0 0 1-2-2v-2" /> <path d="M7 8h8" /> <path d="M7 12h10" /> <path d="M7 16h6" /></symbol><symbol id="i-workflow" viewBox="0 0 24 24"><rect width="8" height="8" x="3" y="3" rx="2" /> <path d="M7 11v4a2 2 0 0 0 2 2h4" /> <rect width="8" height="8" x="13" y="13" rx="2" /></symbol><symbol id="i-library" viewBox="0 0 24 24"><path d="m16 6 4 14" /> <path d="M12 6v14" /> <path d="M8 8v12" /> <path d="M4 4v16" /></symbol><symbol id="i-clock" viewBox="0 0 24 24"><circle cx="12" cy="12" r="10" /> <path d="M12 6v6l4 2" /></symbol><symbol id="i-lock" viewBox="0 0 24 24"><rect width="18" height="11" x="3" y="11" rx="2" ry="2" /> <path d="M7 11V7a5 5 0 0 1 10 0v4" /></symbol></svg>
